# xmcd
#
# Track frame offsets:
#	150
#	6550
#	12481
#	17454
#	19670
#	23355
#	29934
#	32685
#	37741
#	39172
#	44232
#	50170
#	52400
#	55789
#	65738
#	71215
#	76152
#	78987
#	82002
#	87926
#	92791
#	97361
#	106521
#	112164
#	118707
#	126152
#	129491
#	134968
#	140474
#	145375
#	148066
#	152089
#	157068
#	161843
#	165906
#	168469
#	175208
#	180549
#	184356
#	187911
#	191646
#	193855
#	200783
#	206800
#	212688
#	218705
#	222937
#	225614
#	230148
#	238239
#	244703
#	249439
#	250949
#	254873
#	258934
#	263920
#	268145
#	273781
#	280698
#	284656
#	289449
#	293306
#
# Disc length: 3966 seconds
#
# Revision: 1364150118
# Processed by: cddbd v1.5.2PL0 Copyright (c) Steve Scherf et al.
# Submitted via: EZCDAudioConverter 2.8.0.1
#
DISCID=c80f7c3e
DTITLE=Willie Jolley - Money Making Music and Minutes [CD2]
DYEAR=2007
DGENRE=R&B
TTITLE0=The Importance of a Minute
TTITLE1=Use Your Minutes Wisely
TTITLE2=The Lion and Gazelle
TTITLE3=How to Make Wise Choices, Pt. 1
TTITLE4=How to Make Wise Choises, Pt. 2
TTITLE5=Nido Qubein's Formula for Choices
TTITLE6=They All Laughed at Thomas Edison
TTITLE7=Success Lessons from the Ant
TTITLE8=Year to Millionaire, Pt. 1
TTITLE9=Year to Millionaire, Pt. 2
TTITLE10=The Power of Give Goals
TTITLE11=The Power of Get Goals
TTITLE12=The Power of Do Goals
TTITLE13=The Power of Be Goals
TTITLE14=How to Grow with Goals
TTITLE15=The Goals Setting Excercise, Pt. 1
TTITLE16=The Goals Setting Excercise, Pt. 2
TTITLE17=You Must Show Up to Go Up
TTITLE18=Thinking Big and Doing Big
TTITLE19=Be Uncommon, Pt. 1
TTITLE20=Be Uncommon, Pt. 2
TTITLE21=The Willie Jolley Story
TTITLE22=You Must Suffer to Sing the Blues
TTITLE23=The 12 Steps to Success, Pt. 1
TTITLE24=The 12 Steps to Success, Pt. 2
TTITLE25=The 12 Steps to Success, Pt. 3
TTITLE26=The 12 Steps to Success, Pt. 4
TTITLE27=The 12 Steps to Success, Pt. 5
TTITLE28=The 12 Steps to Success, Pt. 6
TTITLE29=The 12 Steps to Success, Pt. 7
TTITLE30=The 12 Steps to Success, Pt. 8
TTITLE31=The 12 Steps to Success, Pt. 9
TTITLE32=The 12 Steps to Success, Pt. 10
TTITLE33=The 12 Steps to Success, Pt. 11
TTITLE34=The 12 Steps to Success, Pt. 12
TTITLE35=Winner's Make Things Happen
TTITLE36=The 80-20 Rule of Success
TTITLE37=Good, Better, Best...Never Let It Rest
TTITLE38=The Donkey and The Dirt
TTITLE39=Destiny vs. Determination
TTITLE40=F.E.A.R. vs. F.A.I.T.H.
TTITLE41=Don't Worry
TTITLE42=You Must Struggle to Fly
TTITLE43=Conquer Your Mountains
TTITLE44=Small Minded Friends
TTITLE45=Stay Away from Negative People
TTITLE46=Dreams Come from God
TTITLE47=Your Mind Is a Marvel
TTITLE48=Stop Talking Yourself out of Success
TTITLE49=The Power of the Period and Comma
TTITLE50=Every Exit Is Also an Entrance
TTITLE51=It Takes Courage to Live Your Dreams
TTITLE52=Life Is Hard, Yet It Is Wonderful
TTITLE53=Sometimes the Rabbit Has a Gun
TTITLE54=Sharks
TTITLE55=Struggle Creates Winners
TTITLE56=Carpe Diem
TTITLE57=Everyday Is a Special Occasion
TTITLE58=Within Every Problem There's a Gift
TTITLE59=I Quit...
TTITLE60=Push the Rock
TTITLE61=Whatever You Do, Keep Pushing
EXTD=
EXTT0=
EXTT1=
EXTT2=
EXTT3=
EXTT4=
EXTT5=
EXTT6=
EXTT7=
EXTT8=
EXTT9=
EXTT10=
EXTT11=
EXTT12=
EXTT13=
EXTT14=
EXTT15=
EXTT16=
EXTT17=
EXTT18=
EXTT19=
EXTT20=
EXTT21=
EXTT22=
EXTT23=
EXTT24=
EXTT25=
EXTT26=
EXTT27=
EXTT28=
EXTT29=
EXTT30=
EXTT31=
EXTT32=
EXTT33=
EXTT34=
EXTT35=
EXTT36=
EXTT37=
EXTT38=
EXTT39=
EXTT40=
EXTT41=
EXTT42=
EXTT43=
EXTT44=
EXTT45=
EXTT46=
EXTT47=
EXTT48=
EXTT49=
EXTT50=
EXTT51=
EXTT52=
EXTT53=
EXTT54=
EXTT55=
EXTT56=
EXTT57=
EXTT58=
EXTT59=
EXTT60=
EXTT61=
PLAYORDER=
